<mxfile host="app.diagrams.net" agent="Mozilla/5.0 (Windows NT 10.0; Win64; x64; rv:132.0) Gecko/20100101 Firefox/132.0" version="24.9.1">
  <diagram name="Página-1" id="AEOkZ6YnkQcAd0XCYF9s">
    <mxGraphModel dx="2087" dy="1311" grid="0" gridSize="10" guides="1" tooltips="1" connect="1" arrows="1" fold="1" page="0" pageScale="1" pageWidth="850" pageHeight="1100" math="0" shadow="0">
      <root>
        <mxCell id="0" />
        <mxCell id="1" parent="0" />
        <mxCell id="cNSC9zSWNZ4QoV5eeRQu-1" value="Usuario" style="shape=umlActor;verticalLabelPosition=bottom;verticalAlign=top;html=1;outlineConnect=0;" parent="1" vertex="1">
          <mxGeometry x="-179" y="58" width="30" height="60" as="geometry" />
        </mxCell>
        <mxCell id="cNSC9zSWNZ4QoV5eeRQu-2" value="Personal Administrativo" style="shape=umlActor;verticalLabelPosition=bottom;verticalAlign=top;html=1;outlineConnect=0;" parent="1" vertex="1">
          <mxGeometry x="1059" y="64" width="30" height="60" as="geometry" />
        </mxCell>
        <mxCell id="cNSC9zSWNZ4QoV5eeRQu-3" value="Sistema" style="shape=umlActor;verticalLabelPosition=bottom;verticalAlign=top;html=1;outlineConnect=0;" parent="1" vertex="1">
          <mxGeometry x="440" y="697" width="30" height="60" as="geometry" />
        </mxCell>
        <mxCell id="cNSC9zSWNZ4QoV5eeRQu-5" value="" style="whiteSpace=wrap;html=1;aspect=fixed;" parent="1" vertex="1">
          <mxGeometry x="-31" y="-327" width="991" height="991" as="geometry" />
        </mxCell>
        <mxCell id="cNSC9zSWNZ4QoV5eeRQu-9" value="Actualiza estados de citas" style="ellipse;whiteSpace=wrap;html=1;" parent="1" vertex="1">
          <mxGeometry x="740" y="384" width="120" height="80" as="geometry" />
        </mxCell>
        <mxCell id="cNSC9zSWNZ4QoV5eeRQu-10" value="Cancela cita" style="ellipse;whiteSpace=wrap;html=1;" parent="1" vertex="1">
          <mxGeometry x="-12" y="292" width="120" height="80" as="geometry" />
        </mxCell>
        <mxCell id="cNSC9zSWNZ4QoV5eeRQu-11" value="Agenda citas" style="ellipse;whiteSpace=wrap;html=1;" parent="1" vertex="1">
          <mxGeometry x="157" y="124" width="120" height="80" as="geometry" />
        </mxCell>
        <mxCell id="cNSC9zSWNZ4QoV5eeRQu-12" value="Consulta horarios" style="ellipse;whiteSpace=wrap;html=1;" parent="1" vertex="1">
          <mxGeometry x="37" y="-49" width="120" height="80" as="geometry" />
        </mxCell>
        <mxCell id="cNSC9zSWNZ4QoV5eeRQu-13" value="Consulta dependencias" style="ellipse;whiteSpace=wrap;html=1;" parent="1" vertex="1">
          <mxGeometry x="93" y="-252" width="120" height="80" as="geometry" />
        </mxCell>
        <mxCell id="cNSC9zSWNZ4QoV5eeRQu-14" value="Consulta citas" style="ellipse;whiteSpace=wrap;html=1;" parent="1" vertex="1">
          <mxGeometry x="676" y="191" width="120" height="80" as="geometry" />
        </mxCell>
        <mxCell id="cNSC9zSWNZ4QoV5eeRQu-15" value="Gestiona horarios" style="ellipse;whiteSpace=wrap;html=1;" parent="1" vertex="1">
          <mxGeometry x="706" y="-178" width="120" height="80" as="geometry" />
        </mxCell>
        <mxCell id="cNSC9zSWNZ4QoV5eeRQu-16" value="Consulta disponibilidad" style="ellipse;whiteSpace=wrap;html=1;" parent="1" vertex="1">
          <mxGeometry x="656" y="51" width="120" height="80" as="geometry" />
        </mxCell>
        <mxCell id="cNSC9zSWNZ4QoV5eeRQu-20" value="Enviar notificaciones" style="ellipse;whiteSpace=wrap;html=1;" parent="1" vertex="1">
          <mxGeometry x="181" y="432" width="120" height="80" as="geometry" />
        </mxCell>
        <mxCell id="cNSC9zSWNZ4QoV5eeRQu-21" value="Validar disponibilidad" style="ellipse;whiteSpace=wrap;html=1;" parent="1" vertex="1">
          <mxGeometry x="511" y="405" width="120" height="80" as="geometry" />
        </mxCell>
        <mxCell id="cNSC9zSWNZ4QoV5eeRQu-22" value="Potro Citas" style="text;html=1;align=center;verticalAlign=middle;whiteSpace=wrap;rounded=0;fontSize=16;" parent="1" vertex="1">
          <mxGeometry x="371" y="-315" width="324" height="30" as="geometry" />
        </mxCell>
        <mxCell id="cNSC9zSWNZ4QoV5eeRQu-23" value="" style="endArrow=none;html=1;rounded=0;fontSize=12;startSize=8;endSize=8;curved=1;exitX=0.5;exitY=0.5;exitDx=0;exitDy=0;exitPerimeter=0;entryX=0;entryY=0.5;entryDx=0;entryDy=0;" parent="1" source="cNSC9zSWNZ4QoV5eeRQu-1" target="cNSC9zSWNZ4QoV5eeRQu-13" edge="1">
          <mxGeometry width="50" height="50" relative="1" as="geometry">
            <mxPoint x="196" y="124" as="sourcePoint" />
            <mxPoint x="92" y="-194" as="targetPoint" />
          </mxGeometry>
        </mxCell>
        <mxCell id="cNSC9zSWNZ4QoV5eeRQu-24" value="" style="endArrow=none;html=1;rounded=0;fontSize=12;startSize=8;endSize=8;curved=1;" parent="1" source="cNSC9zSWNZ4QoV5eeRQu-1" target="cNSC9zSWNZ4QoV5eeRQu-12" edge="1">
          <mxGeometry width="50" height="50" relative="1" as="geometry">
            <mxPoint x="-119" y="16" as="sourcePoint" />
            <mxPoint x="246" y="74" as="targetPoint" />
          </mxGeometry>
        </mxCell>
        <mxCell id="cNSC9zSWNZ4QoV5eeRQu-25" value="Consultar Dependencias disponibles" style="ellipse;whiteSpace=wrap;html=1;" parent="1" vertex="1">
          <mxGeometry x="277" y="-155" width="120" height="80" as="geometry" />
        </mxCell>
        <mxCell id="cNSC9zSWNZ4QoV5eeRQu-26" value="" style="endArrow=open;endSize=12;dashed=1;html=1;rounded=0;fontSize=12;curved=1;exitX=1;exitY=0;exitDx=0;exitDy=0;" parent="1" source="cNSC9zSWNZ4QoV5eeRQu-12" target="cNSC9zSWNZ4QoV5eeRQu-25" edge="1">
          <mxGeometry x="-0.0075" width="160" relative="1" as="geometry">
            <mxPoint x="141" y="99" as="sourcePoint" />
            <mxPoint x="301" y="99" as="targetPoint" />
            <mxPoint as="offset" />
          </mxGeometry>
        </mxCell>
        <mxCell id="cNSC9zSWNZ4QoV5eeRQu-27" value="&amp;lt;&amp;lt;include&amp;gt;&amp;gt;" style="text;html=1;align=center;verticalAlign=middle;whiteSpace=wrap;rounded=0;fontSize=16;" parent="1" vertex="1">
          <mxGeometry x="168" y="-98" width="60" height="30" as="geometry" />
        </mxCell>
        <mxCell id="cNSC9zSWNZ4QoV5eeRQu-28" value="" style="endArrow=none;html=1;rounded=0;fontSize=12;startSize=8;endSize=8;curved=1;entryX=0;entryY=0.5;entryDx=0;entryDy=0;" parent="1" source="cNSC9zSWNZ4QoV5eeRQu-1" target="cNSC9zSWNZ4QoV5eeRQu-11" edge="1">
          <mxGeometry width="50" height="50" relative="1" as="geometry">
            <mxPoint x="142" y="137" as="sourcePoint" />
            <mxPoint x="192" y="87" as="targetPoint" />
          </mxGeometry>
        </mxCell>
        <mxCell id="cNSC9zSWNZ4QoV5eeRQu-29" value="Consultar horarios disponibles" style="ellipse;whiteSpace=wrap;html=1;" parent="1" vertex="1">
          <mxGeometry x="433" y="2" width="120" height="80" as="geometry" />
        </mxCell>
        <mxCell id="cNSC9zSWNZ4QoV5eeRQu-30" value="" style="endArrow=open;endSize=12;dashed=1;html=1;rounded=0;fontSize=12;curved=1;exitX=0.874;exitY=0.219;exitDx=0;exitDy=0;exitPerimeter=0;entryX=0.099;entryY=0.777;entryDx=0;entryDy=0;entryPerimeter=0;" parent="1" source="cNSC9zSWNZ4QoV5eeRQu-11" target="cNSC9zSWNZ4QoV5eeRQu-29" edge="1">
          <mxGeometry width="160" relative="1" as="geometry">
            <mxPoint x="92" y="112" as="sourcePoint" />
            <mxPoint x="252" y="112" as="targetPoint" />
          </mxGeometry>
        </mxCell>
        <mxCell id="cNSC9zSWNZ4QoV5eeRQu-31" value="&amp;lt;&amp;lt;include&amp;gt;&amp;gt;" style="text;html=1;align=center;verticalAlign=middle;whiteSpace=wrap;rounded=0;fontSize=16;" parent="1" vertex="1">
          <mxGeometry x="325" y="62" width="60" height="30" as="geometry" />
        </mxCell>
        <mxCell id="cNSC9zSWNZ4QoV5eeRQu-32" value="" style="endArrow=none;html=1;rounded=0;fontSize=12;startSize=8;endSize=8;curved=1;" parent="1" source="cNSC9zSWNZ4QoV5eeRQu-1" target="cNSC9zSWNZ4QoV5eeRQu-10" edge="1">
          <mxGeometry width="50" height="50" relative="1" as="geometry">
            <mxPoint x="45" y="216" as="sourcePoint" />
            <mxPoint x="95" y="166" as="targetPoint" />
          </mxGeometry>
        </mxCell>
        <mxCell id="cNSC9zSWNZ4QoV5eeRQu-33" value="" style="endArrow=open;endSize=12;dashed=1;html=1;rounded=0;fontSize=12;curved=1;exitX=0.075;exitY=0.258;exitDx=0;exitDy=0;exitPerimeter=0;entryX=1;entryY=1;entryDx=0;entryDy=0;" parent="1" source="cNSC9zSWNZ4QoV5eeRQu-20" target="cNSC9zSWNZ4QoV5eeRQu-10" edge="1">
          <mxGeometry width="160" relative="1" as="geometry">
            <mxPoint x="178" y="314" as="sourcePoint" />
            <mxPoint x="338" y="314" as="targetPoint" />
          </mxGeometry>
        </mxCell>
        <mxCell id="cNSC9zSWNZ4QoV5eeRQu-34" value="&lt;div&gt;&amp;lt;&amp;lt;extends&amp;gt;&amp;gt;&lt;/div&gt;&lt;div&gt;(confirmatorio automático)&lt;br&gt;&lt;/div&gt;" style="text;html=1;align=center;verticalAlign=middle;whiteSpace=wrap;rounded=0;fontSize=11;" parent="1" vertex="1">
          <mxGeometry x="93" y="398" width="60" height="30" as="geometry" />
        </mxCell>
        <mxCell id="cNSC9zSWNZ4QoV5eeRQu-35" value="" style="endArrow=none;html=1;rounded=0;fontSize=12;startSize=8;endSize=8;curved=1;" parent="1" source="cNSC9zSWNZ4QoV5eeRQu-3" target="cNSC9zSWNZ4QoV5eeRQu-20" edge="1">
          <mxGeometry width="50" height="50" relative="1" as="geometry">
            <mxPoint x="395" y="377" as="sourcePoint" />
            <mxPoint x="445" y="327" as="targetPoint" />
          </mxGeometry>
        </mxCell>
        <mxCell id="cNSC9zSWNZ4QoV5eeRQu-36" value="" style="endArrow=none;html=1;rounded=0;fontSize=12;startSize=8;endSize=8;curved=1;entryX=0.428;entryY=0.975;entryDx=0;entryDy=0;entryPerimeter=0;" parent="1" source="cNSC9zSWNZ4QoV5eeRQu-3" target="cNSC9zSWNZ4QoV5eeRQu-21" edge="1">
          <mxGeometry width="50" height="50" relative="1" as="geometry">
            <mxPoint x="395" y="377" as="sourcePoint" />
            <mxPoint x="445" y="327" as="targetPoint" />
          </mxGeometry>
        </mxCell>
        <mxCell id="yC0-n_e6j7yghOTxSihK-1" value="" style="endArrow=none;html=1;rounded=0;entryX=0.5;entryY=0.5;entryDx=0;entryDy=0;entryPerimeter=0;exitX=1;exitY=0.6;exitDx=0;exitDy=0;exitPerimeter=0;" parent="1" source="cNSC9zSWNZ4QoV5eeRQu-15" target="cNSC9zSWNZ4QoV5eeRQu-2" edge="1">
          <mxGeometry width="50" height="50" relative="1" as="geometry">
            <mxPoint x="403" y="-43" as="sourcePoint" />
            <mxPoint x="453" y="-93" as="targetPoint" />
          </mxGeometry>
        </mxCell>
        <mxCell id="yC0-n_e6j7yghOTxSihK-2" value="" style="endArrow=none;html=1;rounded=0;" parent="1" source="cNSC9zSWNZ4QoV5eeRQu-9" target="cNSC9zSWNZ4QoV5eeRQu-2" edge="1">
          <mxGeometry width="50" height="50" relative="1" as="geometry">
            <mxPoint x="959" y="201" as="sourcePoint" />
            <mxPoint x="1009" y="151" as="targetPoint" />
          </mxGeometry>
        </mxCell>
        <mxCell id="yC0-n_e6j7yghOTxSihK-3" value="" style="endArrow=open;endSize=12;dashed=1;html=1;rounded=0;exitX=0.45;exitY=0.95;exitDx=0;exitDy=0;exitPerimeter=0;" parent="1" source="cNSC9zSWNZ4QoV5eeRQu-15" target="cNSC9zSWNZ4QoV5eeRQu-16" edge="1">
          <mxGeometry width="160" relative="1" as="geometry">
            <mxPoint x="490.99640687119273" y="-128.57572875253834" as="sourcePoint" />
            <mxPoint x="562.2414175331953" y="-101.43003897132529" as="targetPoint" />
          </mxGeometry>
        </mxCell>
        <mxCell id="yC0-n_e6j7yghOTxSihK-4" value="&amp;lt;&amp;lt;include&amp;gt;&amp;gt;" style="text;html=1;align=center;verticalAlign=middle;whiteSpace=wrap;rounded=0;fontSize=16;" parent="1" vertex="1">
          <mxGeometry x="686" y="-68" width="60" height="30" as="geometry" />
        </mxCell>
        <mxCell id="yC0-n_e6j7yghOTxSihK-6" value="" style="endArrow=none;html=1;rounded=0;" parent="1" source="cNSC9zSWNZ4QoV5eeRQu-14" target="cNSC9zSWNZ4QoV5eeRQu-2" edge="1">
          <mxGeometry width="50" height="50" relative="1" as="geometry">
            <mxPoint x="403" y="-7" as="sourcePoint" />
            <mxPoint x="453" y="-57" as="targetPoint" />
          </mxGeometry>
        </mxCell>
        <mxCell id="yC0-n_e6j7yghOTxSihK-9" value="" style="endArrow=open;endSize=12;dashed=1;html=1;rounded=0;exitX=0.5;exitY=0;exitDx=0;exitDy=0;" parent="1" source="cNSC9zSWNZ4QoV5eeRQu-20" target="cNSC9zSWNZ4QoV5eeRQu-11" edge="1">
          <mxGeometry width="160" relative="1" as="geometry">
            <mxPoint x="348" y="208" as="sourcePoint" />
            <mxPoint x="508" y="208" as="targetPoint" />
          </mxGeometry>
        </mxCell>
        <mxCell id="yC0-n_e6j7yghOTxSihK-10" value="&lt;div&gt;&amp;lt;&amp;lt;extends&amp;gt;&amp;gt;&lt;/div&gt;&lt;div&gt;(confirmatorio automático)&lt;br&gt;&lt;/div&gt;" style="text;html=1;align=center;verticalAlign=middle;whiteSpace=wrap;rounded=0;fontSize=11;" parent="1" vertex="1">
          <mxGeometry x="172" y="274" width="60" height="30" as="geometry" />
        </mxCell>
        <mxCell id="yC0-n_e6j7yghOTxSihK-11" value="" style="endArrow=open;endSize=12;dashed=1;html=1;rounded=0;entryX=0.7;entryY=0.938;entryDx=0;entryDy=0;entryPerimeter=0;" parent="1" source="cNSC9zSWNZ4QoV5eeRQu-21" target="cNSC9zSWNZ4QoV5eeRQu-29" edge="1">
          <mxGeometry width="160" relative="1" as="geometry">
            <mxPoint x="348" y="88" as="sourcePoint" />
            <mxPoint x="508" y="88" as="targetPoint" />
          </mxGeometry>
        </mxCell>
        <mxCell id="yC0-n_e6j7yghOTxSihK-12" value="" style="endArrow=open;endSize=12;dashed=1;html=1;rounded=0;entryX=0.933;entryY=0.688;entryDx=0;entryDy=0;entryPerimeter=0;" parent="1" source="cNSC9zSWNZ4QoV5eeRQu-21" target="cNSC9zSWNZ4QoV5eeRQu-11" edge="1">
          <mxGeometry width="160" relative="1" as="geometry">
            <mxPoint x="348" y="88" as="sourcePoint" />
            <mxPoint x="508" y="88" as="targetPoint" />
          </mxGeometry>
        </mxCell>
        <mxCell id="yC0-n_e6j7yghOTxSihK-13" value="&amp;lt;&amp;lt;include&amp;gt;&amp;gt;" style="text;html=1;align=center;verticalAlign=middle;whiteSpace=wrap;rounded=0;fontSize=16;" parent="1" vertex="1">
          <mxGeometry x="341" y="253" width="60" height="30" as="geometry" />
        </mxCell>
        <mxCell id="yC0-n_e6j7yghOTxSihK-15" value="&amp;lt;&amp;lt;include&amp;gt;&amp;gt;" style="text;html=1;align=center;verticalAlign=middle;whiteSpace=wrap;rounded=0;fontSize=16;" parent="1" vertex="1">
          <mxGeometry x="489" y="154" width="60" height="30" as="geometry" />
        </mxCell>
        <mxCell id="yC0-n_e6j7yghOTxSihK-16" value="" style="endArrow=none;html=1;rounded=0;" parent="1" source="cNSC9zSWNZ4QoV5eeRQu-16" target="cNSC9zSWNZ4QoV5eeRQu-2" edge="1">
          <mxGeometry width="50" height="50" relative="1" as="geometry">
            <mxPoint x="403" y="173" as="sourcePoint" />
            <mxPoint x="453" y="123" as="targetPoint" />
          </mxGeometry>
        </mxCell>
        <mxCell id="yC0-n_e6j7yghOTxSihK-17" style="edgeStyle=orthogonalEdgeStyle;rounded=0;orthogonalLoop=1;jettySize=auto;html=1;exitX=0.5;exitY=1;exitDx=0;exitDy=0;" parent="1" source="yC0-n_e6j7yghOTxSihK-4" target="yC0-n_e6j7yghOTxSihK-4" edge="1">
          <mxGeometry relative="1" as="geometry" />
        </mxCell>
      </root>
    </mxGraphModel>
  </diagram>
</mxfile>
